# Blender v2.74 (sub 0) OBJ File: ''
# www.blender.org
mtllib faut.mtl
o faut
v 0.500000 0.500000 0.500000
v -0.500000 0.250000 0.500000
v 0.500000 0.250000 0.500000
v -0.500000 0.500000 0.500000
v -0.500000 0.500000 -0.500000
v 0.500000 0.250000 -0.500000
v -0.500000 0.250000 -0.500000
v 0.500000 0.500000 -0.500000
v 0.500000 0.500000 -0.500000
v 0.500000 0.250000 0.500000
v 0.500000 0.250000 -0.500000
v 0.500000 0.500000 0.500000
v 0.500000 0.250000 0.500000
v -0.500000 0.250000 -0.500000
v 0.500000 0.250000 -0.500000
v -0.500000 0.250000 0.500000
v -0.500000 0.500000 0.500000
v -0.500000 0.250000 -0.500000
v -0.500000 0.250000 0.500000
v -0.500000 0.500000 -0.500000
v 0.500000 0.500000 -0.500000
v -0.500000 0.500000 0.500000
v 0.500000 0.500000 0.500000
v -0.500000 0.500000 -0.500000
v -0.375000 1.000000 0.500000
v -0.500000 0.500000 0.500000
v -0.375000 0.500000 0.500000
v -0.500000 1.000000 0.500000
v -0.500000 1.000000 -0.500000
v -0.375000 0.500000 -0.500000
v -0.500000 0.500000 -0.500000
v -0.375000 1.000000 -0.500000
v -0.375000 1.000000 -0.500000
v -0.375000 0.500000 0.500000
v -0.375000 0.500000 -0.500000
v -0.375000 1.000000 0.500000
v -0.375000 0.500000 0.500000
v -0.500000 0.500000 -0.500000
v -0.375000 0.500000 -0.500000
v -0.500000 0.500000 0.500000
v -0.500000 1.000000 0.500000
v -0.500000 0.500000 -0.500000
v -0.500000 0.500000 0.500000
v -0.500000 1.000000 -0.500000
v -0.375000 1.000000 -0.500000
v -0.500000 1.000000 0.500000
v -0.375000 1.000000 0.500000
v -0.500000 1.000000 -0.500000
v 0.500000 1.000000 0.500000
v 0.375000 0.500000 0.500000
v 0.500000 0.500000 0.500000
v 0.375000 1.000000 0.500000
v 0.375000 1.000000 -0.500000
v 0.500000 0.500000 -0.500000
v 0.375000 0.500000 -0.500000
v 0.500000 1.000000 -0.500000
v 0.500000 1.000000 -0.500000
v 0.500000 0.500000 0.500000
v 0.500000 0.500000 -0.500000
v 0.500000 1.000000 0.500000
v 0.500000 0.500000 0.500000
v 0.375000 0.500000 -0.500000
v 0.500000 0.500000 -0.500000
v 0.375000 0.500000 0.500000
v 0.375000 1.000000 0.500000
v 0.375000 0.500000 -0.500000
v 0.375000 0.500000 0.500000
v 0.375000 1.000000 -0.500000
v 0.500000 1.000000 -0.500000
v 0.375000 1.000000 0.500000
v 0.500000 1.000000 0.500000
v 0.375000 1.000000 -0.500000
v 0.375000 1.250000 -0.250000
v -0.375000 0.500000 -0.250000
v 0.375000 0.500000 -0.250000
v -0.375000 1.250000 -0.250000
v -0.375000 1.250000 -0.500000
v 0.375000 0.500000 -0.500000
v -0.375000 0.500000 -0.500000
v 0.375000 1.250000 -0.500000
v 0.375000 1.250000 -0.500000
v 0.375000 0.500000 -0.250000
v 0.375000 0.500000 -0.500000
v 0.375000 1.250000 -0.250000
v 0.375000 0.500000 -0.250000
v -0.375000 0.500000 -0.500000
v 0.375000 0.500000 -0.500000
v -0.375000 0.500000 -0.250000
v -0.375000 1.250000 -0.250000
v -0.375000 0.500000 -0.500000
v -0.375000 0.500000 -0.250000
v -0.375000 1.250000 -0.500000
v 0.375000 1.250000 -0.500000
v -0.375000 1.250000 -0.250000
v 0.375000 1.250000 -0.250000
v -0.375000 1.250000 -0.500000
v 0.437500 0.250000 0.437500
v 0.312500 -0.000000 0.437500
v 0.437500 -0.000000 0.437500
v 0.312500 0.250000 0.437500
v 0.312500 0.250000 0.312500
v 0.437500 -0.000000 0.312500
v 0.312500 -0.000000 0.312500
v 0.437500 0.250000 0.312500
v 0.437500 0.250000 0.312500
v 0.437500 -0.000000 0.437500
v 0.437500 -0.000000 0.312500
v 0.437500 0.250000 0.437500
v 0.437500 -0.000000 0.437500
v 0.312500 -0.000000 0.312500
v 0.437500 -0.000000 0.312500
v 0.312500 -0.000000 0.437500
v 0.312500 0.250000 0.437500
v 0.312500 -0.000000 0.312500
v 0.312500 -0.000000 0.437500
v 0.312500 0.250000 0.312500
v 0.437500 0.250000 0.312500
v 0.312500 0.250000 0.437500
v 0.437500 0.250000 0.437500
v 0.312500 0.250000 0.312500
v -0.312500 0.250000 0.437500
v -0.437500 -0.000000 0.437500
v -0.312500 -0.000000 0.437500
v -0.437500 0.250000 0.437500
v -0.437500 0.250000 0.312500
v -0.312500 -0.000000 0.312500
v -0.437500 -0.000000 0.312500
v -0.312500 0.250000 0.312500
v -0.312500 0.250000 0.312500
v -0.312500 -0.000000 0.437500
v -0.312500 -0.000000 0.312500
v -0.312500 0.250000 0.437500
v -0.312500 -0.000000 0.437500
v -0.437500 -0.000000 0.312500
v -0.312500 -0.000000 0.312500
v -0.437500 -0.000000 0.437500
v -0.437500 0.250000 0.437500
v -0.437500 -0.000000 0.312500
v -0.437500 -0.000000 0.437500
v -0.437500 0.250000 0.312500
v -0.312500 0.250000 0.312500
v -0.437500 0.250000 0.437500
v -0.312500 0.250000 0.437500
v -0.437500 0.250000 0.312500
v -0.312500 0.250000 -0.312500
v -0.437500 0.000000 -0.312500
v -0.312500 0.000000 -0.312500
v -0.437500 0.250000 -0.312500
v -0.437500 0.250000 -0.437500
v -0.312500 0.000000 -0.437500
v -0.437500 0.000000 -0.437500
v -0.312500 0.250000 -0.437500
v -0.312500 0.250000 -0.437500
v -0.312500 0.000000 -0.312500
v -0.312500 0.000000 -0.437500
v -0.312500 0.250000 -0.312500
v -0.312500 0.000000 -0.312500
v -0.437500 0.000000 -0.437500
v -0.312500 0.000000 -0.437500
v -0.437500 0.000000 -0.312500
v -0.437500 0.250000 -0.312500
v -0.437500 0.000000 -0.437500
v -0.437500 0.000000 -0.312500
v -0.437500 0.250000 -0.437500
v -0.312500 0.250000 -0.437500
v -0.437500 0.250000 -0.312500
v -0.312500 0.250000 -0.312500
v -0.437500 0.250000 -0.437500
v 0.437500 0.250000 -0.312500
v 0.312500 0.000000 -0.312500
v 0.437500 0.000000 -0.312500
v 0.312500 0.250000 -0.312500
v 0.312500 0.250000 -0.437500
v 0.437500 0.000000 -0.437500
v 0.312500 0.000000 -0.437500
v 0.437500 0.250000 -0.437500
v 0.437500 0.250000 -0.437500
v 0.437500 0.000000 -0.312500
v 0.437500 0.000000 -0.437500
v 0.437500 0.250000 -0.312500
v 0.437500 0.000000 -0.312500
v 0.312500 0.000000 -0.437500
v 0.437500 0.000000 -0.437500
v 0.312500 0.000000 -0.312500
v 0.312500 0.250000 -0.312500
v 0.312500 0.000000 -0.437500
v 0.312500 0.000000 -0.312500
v 0.312500 0.250000 -0.437500
v 0.437500 0.250000 -0.437500
v 0.312500 0.250000 -0.312500
v 0.437500 0.250000 -0.312500
v 0.312500 0.250000 -0.437500
v 0.375000 0.625000 0.487500
v -0.375000 0.500000 0.487500
v 0.375000 0.500000 0.487500
v -0.375000 0.625000 0.487500
v -0.375000 0.625000 -0.262500
v 0.375000 0.500000 -0.262500
v -0.375000 0.500000 -0.262500
v 0.375000 0.625000 -0.262500
v 0.375000 0.625000 -0.262500
v 0.375000 0.500000 0.487500
v 0.375000 0.500000 -0.262500
v 0.375000 0.625000 0.487500
v 0.375000 0.500000 0.487500
v -0.375000 0.500000 -0.262500
v 0.375000 0.500000 -0.262500
v -0.375000 0.500000 0.487500
v -0.375000 0.625000 0.487500
v -0.375000 0.500000 -0.262500
v -0.375000 0.500000 0.487500
v -0.375000 0.625000 -0.262500
v 0.375000 0.625000 -0.262500
v -0.375000 0.625000 0.487500
v 0.375000 0.625000 0.487500
v -0.375000 0.625000 -0.262500
vt 1.000000 1.000000
vt 0.000000 0.750000
vt 1.000000 0.750000
vt 0.000000 1.000000
vt 0.000000 0.000000
vt 1.000000 0.000000
vt 0.125000 1.000000
vt 0.000000 0.500000
vt 0.125000 0.500000
vt 1.000000 0.500000
vt 0.125000 0.000000
vt 0.750000 1.000000
vt 0.000000 0.250000
vt 0.750000 0.250000
vt 0.250000 1.000000
vt 0.250000 0.250000
vt 0.750000 0.750000
vt 1.000000 0.250000
vt 0.875000 0.000000
vt 0.875000 0.250000
vt 0.875000 0.125000
vt 1.000000 0.125000
vt 0.000000 0.875000
vt 0.750000 0.875000
vn 0.000000 0.000000 1.000000
vn 0.000000 0.000000 -1.000000
vn 1.000000 0.000000 0.000000
vn 0.000000 -1.000000 -0.000000
vn -1.000000 -0.000000 0.000000
vn 0.000000 1.000000 0.000000
usemtl None
s 1
f 1/1/1 2/2/1 3/3/1
f 1/1/1 4/4/1 2/2/1
f 5/1/2 6/2/2 7/3/2
f 5/1/2 8/4/2 6/2/2
f 9/1/3 10/2/3 11/3/3
f 9/1/3 12/4/3 10/2/3
f 13/1/4 14/5/4 15/6/4
f 13/1/4 16/4/4 14/5/4
f 17/1/5 18/2/5 19/3/5
f 17/1/5 20/4/5 18/2/5
f 21/1/6 22/5/6 23/6/6
f 21/1/6 24/4/6 22/5/6
f 25/7/1 26/8/1 27/9/1
f 25/7/1 28/4/1 26/8/1
f 29/7/2 30/8/2 31/9/2
f 29/7/2 32/4/2 30/8/2
f 33/1/3 34/8/3 35/10/3
f 33/1/3 36/4/3 34/8/3
f 37/7/4 38/5/4 39/11/4
f 37/7/4 40/4/4 38/5/4
f 41/1/5 42/8/5 43/10/5
f 41/1/5 44/4/5 42/8/5
f 45/7/6 46/5/6 47/11/6
f 45/7/6 48/4/6 46/5/6
f 49/7/1 50/8/1 51/9/1
f 49/7/1 52/4/1 50/8/1
f 53/7/2 54/8/2 55/9/2
f 53/7/2 56/4/2 54/8/2
f 57/1/3 58/8/3 59/10/3
f 57/1/3 60/4/3 58/8/3
f 61/7/4 62/5/4 63/11/4
f 61/7/4 64/4/4 62/5/4
f 65/1/5 66/8/5 67/10/5
f 65/1/5 68/4/5 66/8/5
f 69/7/6 70/5/6 71/11/6
f 69/7/6 72/4/6 70/5/6
f 73/12/1 74/13/1 75/14/1
f 73/12/1 76/4/1 74/13/1
f 77/12/2 78/13/2 79/14/2
f 77/12/2 80/4/2 78/13/2
f 81/15/3 82/13/3 83/16/3
f 81/15/3 84/4/3 82/13/3
f 85/12/4 86/2/4 87/17/4
f 85/12/4 88/4/4 86/2/4
f 89/15/5 90/13/5 91/16/5
f 89/15/5 92/4/5 90/13/5
f 93/12/6 94/2/6 95/17/6
f 93/12/6 96/4/6 94/2/6
f 97/18/1 98/19/1 99/6/1
f 97/18/1 100/20/1 98/19/1
f 101/18/2 102/19/2 103/6/2
f 101/18/2 104/20/2 102/19/2
f 105/18/3 106/19/3 107/6/3
f 105/18/3 108/20/3 106/19/3
f 109/18/4 110/21/4 111/22/4
f 109/18/4 112/20/4 110/21/4
f 113/18/5 114/19/5 115/6/5
f 113/18/5 116/20/5 114/19/5
f 117/18/6 118/21/6 119/22/6
f 117/18/6 120/20/6 118/21/6
f 121/18/1 122/19/1 123/6/1
f 121/18/1 124/20/1 122/19/1
f 125/18/2 126/19/2 127/6/2
f 125/18/2 128/20/2 126/19/2
f 129/18/3 130/19/3 131/6/3
f 129/18/3 132/20/3 130/19/3
f 133/18/4 134/21/4 135/22/4
f 133/18/4 136/20/4 134/21/4
f 137/18/5 138/19/5 139/6/5
f 137/18/5 140/20/5 138/19/5
f 141/18/6 142/21/6 143/22/6
f 141/18/6 144/20/6 142/21/6
f 145/18/1 146/19/1 147/6/1
f 145/18/1 148/20/1 146/19/1
f 149/18/2 150/19/2 151/6/2
f 149/18/2 152/20/2 150/19/2
f 153/18/3 154/19/3 155/6/3
f 153/18/3 156/20/3 154/19/3
f 157/18/4 158/21/4 159/22/4
f 157/18/4 160/20/4 158/21/4
f 161/18/5 162/19/5 163/6/5
f 161/18/5 164/20/5 162/19/5
f 165/18/6 166/21/6 167/22/6
f 165/18/6 168/20/6 166/21/6
f 169/18/1 170/19/1 171/6/1
f 169/18/1 172/20/1 170/19/1
f 173/18/2 174/19/2 175/6/2
f 173/18/2 176/20/2 174/19/2
f 177/18/3 178/19/3 179/6/3
f 177/18/3 180/20/3 178/19/3
f 181/18/4 182/21/4 183/22/4
f 181/18/4 184/20/4 182/21/4
f 185/18/5 186/19/5 187/6/5
f 185/18/5 188/20/5 186/19/5
f 189/18/6 190/21/6 191/22/6
f 189/18/6 192/20/6 190/21/6
f 193/12/1 194/23/1 195/24/1
f 193/12/1 196/4/1 194/23/1
f 197/12/2 198/23/2 199/24/2
f 197/12/2 200/4/2 198/23/2
f 201/12/3 202/23/3 203/24/3
f 201/12/3 204/4/3 202/23/3
f 205/12/4 206/13/4 207/14/4
f 205/12/4 208/4/4 206/13/4
f 209/12/5 210/23/5 211/24/5
f 209/12/5 212/4/5 210/23/5
f 213/12/6 214/13/6 215/14/6
f 213/12/6 216/4/6 214/13/6
