# Blender v2.74 (sub 0) OBJ File: ''
# www.blender.org
mtllib lavv.mtl
o lavv
v 0.500000 1.000000 -0.375000
v 0.500000 0.875000 0.500000
v 0.500000 0.875000 -0.375000
v 0.500000 1.000000 0.500000
v -0.500000 1.000000 0.500000
v -0.500000 0.875000 -0.375000
v -0.500000 0.875000 0.500000
v -0.500000 1.000000 -0.375000
v -0.500000 1.000000 -0.375000
v 0.500000 0.875000 -0.375000
v -0.500000 0.875000 -0.375000
v 0.500000 1.000000 -0.375000
v 0.500000 0.875000 -0.375000
v -0.500000 0.875000 0.500000
v -0.500000 0.875000 -0.375000
v 0.500000 0.875000 0.500000
v 0.500000 1.000000 0.500000
v -0.500000 0.875000 0.500000
v 0.500000 0.875000 0.500000
v -0.500000 1.000000 0.500000
v -0.500000 1.000000 -0.375000
v 0.500000 1.000000 0.500000
v 0.500000 1.000000 -0.375000
v -0.500000 1.000000 0.500000
v 0.218750 0.968750 0.462500
v 0.218750 0.906250 0.525000
v 0.218750 0.906250 0.462500
v 0.218750 0.968750 0.525000
v 0.156250 0.968750 0.525000
v 0.156250 0.906250 0.462500
v 0.156250 0.906250 0.525000
v 0.156250 0.968750 0.462500
v 0.156250 0.968750 0.462500
v 0.218750 0.906250 0.462500
v 0.156250 0.906250 0.462500
v 0.218750 0.968750 0.462500
v 0.218750 0.906250 0.462500
v 0.156250 0.906250 0.525000
v 0.156250 0.906250 0.462500
v 0.218750 0.906250 0.525000
v 0.218750 0.968750 0.525000
v 0.156250 0.906250 0.525000
v 0.218750 0.906250 0.525000
v 0.156250 0.968750 0.525000
v 0.156250 0.968750 0.462500
v 0.218750 0.968750 0.525000
v 0.218750 0.968750 0.462500
v 0.156250 0.968750 0.525000
v 0.437500 0.875105 0.592369
v 0.437500 0.062500 0.531250
v 0.437500 0.071954 0.469469
v 0.437500 0.865651 0.654150
v -0.437500 0.865651 0.654150
v -0.437500 0.071954 0.469469
v -0.437500 0.062500 0.531250
v -0.437500 0.875105 0.592369
v -0.437500 0.875105 0.592369
v 0.437500 0.071954 0.469469
v -0.437500 0.071954 0.469469
v 0.437500 0.875105 0.592369
v 0.437500 0.071954 0.469469
v -0.437500 0.062500 0.531250
v -0.437500 0.071954 0.469469
v 0.437500 0.062500 0.531250
v 0.437500 0.865651 0.654150
v -0.437500 0.062500 0.531250
v 0.437500 0.062500 0.531250
v -0.437500 0.865651 0.654150
v -0.437500 0.875105 0.592369
v 0.437500 0.865651 0.654150
v 0.437500 0.875105 0.592369
v -0.437500 0.865651 0.654150
v 0.125000 0.784979 0.616421
v 0.125000 0.713744 0.668748
v 0.125000 0.723198 0.606967
v 0.125000 0.775525 0.678202
v -0.125000 0.775525 0.678202
v -0.125000 0.723198 0.606967
v -0.125000 0.713744 0.668748
v -0.125000 0.784979 0.616421
v -0.125000 0.784979 0.616421
v 0.125000 0.723198 0.606967
v -0.125000 0.723198 0.606967
v 0.125000 0.784979 0.616421
v 0.125000 0.723198 0.606967
v -0.125000 0.713744 0.668748
v -0.125000 0.723198 0.606967
v 0.125000 0.713744 0.668748
v 0.125000 0.775525 0.678202
v -0.125000 0.713744 0.668748
v 0.125000 0.713744 0.668748
v -0.125000 0.775525 0.678202
v -0.125000 0.784979 0.616421
v 0.125000 0.775525 0.678202
v 0.125000 0.784979 0.616421
v -0.125000 0.775525 0.678202
v 0.406250 0.968750 0.462500
v 0.406250 0.906250 0.525000
v 0.406250 0.906250 0.462500
v 0.406250 0.968750 0.525000
v 0.343750 0.968750 0.525000
v 0.343750 0.906250 0.462500
v 0.343750 0.906250 0.525000
v 0.343750 0.968750 0.462500
v 0.343750 0.968750 0.462500
v 0.406250 0.906250 0.462500
v 0.343750 0.906250 0.462500
v 0.406250 0.968750 0.462500
v 0.406250 0.906250 0.462500
v 0.343750 0.906250 0.525000
v 0.343750 0.906250 0.462500
v 0.406250 0.906250 0.525000
v 0.406250 0.968750 0.525000
v 0.343750 0.906250 0.525000
v 0.406250 0.906250 0.525000
v 0.343750 0.968750 0.525000
v 0.343750 0.968750 0.462500
v 0.406250 0.968750 0.525000
v 0.406250 0.968750 0.462500
v 0.343750 0.968750 0.525000
v 0.500000 0.875000 -0.375000
v 0.500000 -0.000000 0.500000
v 0.500000 0.000000 -0.375000
v 0.500000 0.875000 0.500000
v 0.437500 0.875000 0.500000
v 0.437500 0.000000 -0.375000
v 0.437500 -0.000000 0.500000
v 0.437500 0.875000 -0.375000
v 0.437500 0.875000 -0.375000
v 0.500000 0.000000 -0.375000
v 0.437500 0.000000 -0.375000
v 0.500000 0.875000 -0.375000
v 0.500000 0.000000 -0.375000
v 0.437500 -0.000000 0.500000
v 0.437500 0.000000 -0.375000
v 0.500000 -0.000000 0.500000
v 0.500000 0.875000 0.500000
v 0.437500 -0.000000 0.500000
v 0.500000 -0.000000 0.500000
v 0.437500 0.875000 0.500000
v 0.437500 0.875000 -0.375000
v 0.500000 0.875000 0.500000
v 0.500000 0.875000 -0.375000
v 0.437500 0.875000 0.500000
v -0.437500 0.875000 -0.375000
v -0.437500 -0.000000 0.500000
v -0.437500 0.000000 -0.375000
v -0.437500 0.875000 0.500000
v -0.500000 0.875000 0.500000
v -0.500000 0.000000 -0.375000
v -0.500000 -0.000000 0.500000
v -0.500000 0.875000 -0.375000
v -0.500000 0.875000 -0.375000
v -0.437500 0.000000 -0.375000
v -0.500000 0.000000 -0.375000
v -0.437500 0.875000 -0.375000
v -0.437500 0.000000 -0.375000
v -0.500000 -0.000000 0.500000
v -0.500000 0.000000 -0.375000
v -0.437500 -0.000000 0.500000
v -0.437500 0.875000 0.500000
v -0.500000 -0.000000 0.500000
v -0.437500 -0.000000 0.500000
v -0.500000 0.875000 0.500000
v -0.500000 0.875000 -0.375000
v -0.437500 0.875000 0.500000
v -0.437500 0.875000 -0.375000
v -0.500000 0.875000 0.500000
v 0.437500 0.062500 -0.375000
v 0.437500 -0.000000 0.500000
v 0.437500 0.000000 -0.375000
v 0.437500 0.062500 0.500000
v -0.437500 0.062500 0.500000
v -0.437500 0.000000 -0.375000
v -0.437500 -0.000000 0.500000
v -0.437500 0.062500 -0.375000
v -0.437500 0.062500 -0.375000
v 0.437500 0.000000 -0.375000
v -0.437500 0.000000 -0.375000
v 0.437500 0.062500 -0.375000
v 0.437500 0.000000 -0.375000
v -0.437500 -0.000000 0.500000
v -0.437500 0.000000 -0.375000
v 0.437500 -0.000000 0.500000
v 0.437500 0.062500 0.500000
v -0.437500 -0.000000 0.500000
v 0.437500 -0.000000 0.500000
v -0.437500 0.062500 0.500000
v -0.437500 0.062500 -0.375000
v 0.437500 0.062500 0.500000
v 0.437500 0.062500 -0.375000
v -0.437500 0.062500 0.500000
v 0.437500 0.875000 -0.375000
v 0.437500 0.062500 -0.312500
v 0.437500 0.062500 -0.375000
v 0.437500 0.875000 -0.312500
v -0.437500 0.875000 -0.312500
v -0.437500 0.062500 -0.375000
v -0.437500 0.062500 -0.312500
v -0.437500 0.875000 -0.375000
v -0.437500 0.875000 -0.375000
v 0.437500 0.062500 -0.375000
v -0.437500 0.062500 -0.375000
v 0.437500 0.875000 -0.375000
v 0.437500 0.062500 -0.375000
v -0.437500 0.062500 -0.312500
v -0.437500 0.062500 -0.375000
v 0.437500 0.062500 -0.312500
v 0.437500 0.875000 -0.312500
v -0.437500 0.062500 -0.312500
v 0.437500 0.062500 -0.312500
v -0.437500 0.875000 -0.312500
v -0.437500 0.875000 -0.375000
v 0.437500 0.875000 -0.312500
v 0.437500 0.875000 -0.375000
v -0.437500 0.875000 -0.312500
v 0.312500 0.968750 0.462500
v 0.312500 0.906250 0.525000
v 0.312500 0.906250 0.462500
v 0.312500 0.968750 0.525000
v 0.250000 0.968750 0.525000
v 0.250000 0.906250 0.462500
v 0.250000 0.906250 0.525000
v 0.250000 0.968750 0.462500
v 0.250000 0.968750 0.462500
v 0.312500 0.906250 0.462500
v 0.250000 0.906250 0.462500
v 0.312500 0.968750 0.462500
v 0.312500 0.906250 0.462500
v 0.250000 0.906250 0.525000
v 0.250000 0.906250 0.462500
v 0.312500 0.906250 0.525000
v 0.312500 0.968750 0.525000
v 0.250000 0.906250 0.525000
v 0.312500 0.906250 0.525000
v 0.250000 0.968750 0.525000
v 0.250000 0.968750 0.462500
v 0.312500 0.968750 0.525000
v 0.312500 0.968750 0.462500
v 0.250000 0.968750 0.525000
v 0.437500 0.500000 -0.312500
v 0.437500 0.500000 0.437500
v 0.437500 0.500000 -0.312500
v 0.437500 0.500000 0.437500
v -0.453506 0.046009 0.437500
v -0.453506 0.046010 -0.312500
v -0.453506 0.046009 0.437500
v -0.453506 0.046010 -0.312500
v -0.453506 0.046010 -0.312500
v 0.437500 0.500000 -0.312500
v -0.453506 0.046010 -0.312500
v 0.437500 0.500000 -0.312500
v 0.437500 0.500000 -0.312500
v -0.453506 0.046009 0.437500
v -0.453506 0.046010 -0.312500
v 0.437500 0.500000 0.437500
v 0.437500 0.500000 0.437500
v -0.453506 0.046009 0.437500
v 0.437500 0.500000 0.437500
v -0.453506 0.046009 0.437500
v -0.453506 0.046010 -0.312500
v 0.437500 0.500000 0.437500
v 0.437500 0.500000 -0.312500
v -0.453506 0.046009 0.437500
vt 0.875000 1.000000
vt 0.000000 0.875000
vt 0.875000 0.875000
vt 0.000000 1.000000
vt 1.000000 1.000000
vt 1.000000 0.875000
vt 0.000000 0.000000
vt 0.875000 0.000000
vt 0.937500 0.812500
vt 1.000000 0.812500
vt 0.937500 0.875000
vt 0.062500 1.000000
vt 0.000000 0.187500
vt 0.062500 0.187500
vt 0.875000 0.187500
vt 0.000000 0.125000
vt 0.062500 0.125000
vt 0.875000 0.812500
vt 0.937500 0.625000
vt 0.875000 0.625000
vt 0.875000 0.125000
vt 0.000000 0.937500
vt 0.875000 0.937500
vt 0.750000 1.000000
vt 0.750000 0.000000
vn 1.000000 0.000000 0.000000
vn -1.000000 0.000000 0.000000
vn 0.000000 0.000000 -1.000000
vn 0.000000 -1.000000 -0.000000
vn 0.000000 -0.000000 1.000000
vn 0.000000 1.000000 0.000000
vn 0.000000 0.151300 -0.988500
vn 0.000000 -0.988500 -0.151300
vn -0.000000 -0.151300 0.988500
vn 0.000000 0.988500 0.151300
vn 0.000000 0.000000 0.000000
vn 0.454000 -0.891000 -0.000000
vn -0.454000 0.891000 0.000000
usemtl None
s 1
f 1/1/1 2/2/1 3/3/1
f 1/1/1 4/4/1 2/2/1
f 5/1/2 6/2/2 7/3/2
f 5/1/2 8/4/2 6/2/2
f 9/5/3 10/2/3 11/6/3
f 9/5/3 12/4/3 10/2/3
f 13/1/4 14/7/4 15/8/4
f 13/1/4 16/4/4 14/7/4
f 17/5/5 18/2/5 19/6/5
f 17/5/5 20/4/5 18/2/5
f 21/1/6 22/7/6 23/8/6
f 21/1/6 24/4/6 22/7/6
f 25/6/1 26/9/1 27/10/1
f 25/6/1 28/11/1 26/9/1
f 29/6/2 30/9/2 31/10/2
f 29/6/2 32/11/2 30/9/2
f 33/6/3 34/9/3 35/10/3
f 33/6/3 36/11/3 34/9/3
f 37/6/4 38/9/4 39/10/4
f 37/6/4 40/11/4 38/9/4
f 41/6/5 42/9/5 43/10/5
f 41/6/5 44/11/5 42/9/5
f 45/6/6 46/9/6 47/10/6
f 45/6/6 48/11/6 46/9/6
f 49/12/1 50/13/1 51/14/1
f 49/12/1 52/4/1 50/13/1
f 53/12/2 54/13/2 55/14/2
f 53/12/2 56/4/2 54/13/2
f 57/1/7 58/13/7 59/15/7
f 57/1/7 60/4/7 58/13/7
f 61/12/8 62/16/8 63/17/8
f 61/12/8 64/4/8 62/16/8
f 65/1/9 66/13/9 67/15/9
f 65/1/9 68/4/9 66/13/9
f 69/12/10 70/16/10 71/17/10
f 69/12/10 72/4/10 70/16/10
f 73/11/1 74/18/1 75/9/1
f 73/11/1 76/3/1 74/18/1
f 77/11/2 78/18/2 79/9/2
f 77/11/2 80/3/2 78/18/2
f 81/19/7 82/3/7 83/20/7
f 81/19/7 84/11/7 82/3/7
f 85/11/8 86/20/8 87/19/8
f 85/11/8 88/3/8 86/20/8
f 89/19/9 90/3/9 91/20/9
f 89/19/9 92/11/9 90/3/9
f 93/11/10 94/20/10 95/19/10
f 93/11/10 96/3/10 94/20/10
f 97/6/1 98/9/1 99/10/1
f 97/6/1 100/11/1 98/9/1
f 101/6/2 102/9/2 103/10/2
f 101/6/2 104/11/2 102/9/2
f 105/6/3 106/9/3 107/10/3
f 105/6/3 108/11/3 106/9/3
f 109/6/4 110/9/4 111/10/4
f 109/6/4 112/11/4 110/9/4
f 113/6/5 114/9/5 115/10/5
f 113/6/5 116/11/5 114/9/5
f 117/6/6 118/9/6 119/10/6
f 117/6/6 120/11/6 118/9/6
f 121/1/1 122/16/1 123/21/1
f 121/1/1 124/4/1 122/16/1
f 125/1/2 126/16/2 127/21/2
f 125/1/2 128/4/2 126/16/2
f 129/12/3 130/16/3 131/17/3
f 129/12/3 132/4/3 130/16/3
f 133/1/4 134/22/4 135/23/4
f 133/1/4 136/4/4 134/22/4
f 137/12/5 138/16/5 139/17/5
f 137/12/5 140/4/5 138/16/5
f 141/1/6 142/22/6 143/23/6
f 141/1/6 144/4/6 142/22/6
f 145/1/1 146/16/1 147/21/1
f 145/1/1 148/4/1 146/16/1
f 149/1/2 150/16/2 151/21/2
f 149/1/2 152/4/2 150/16/2
f 153/12/3 154/16/3 155/17/3
f 153/12/3 156/4/3 154/16/3
f 157/1/4 158/22/4 159/23/4
f 157/1/4 160/4/4 158/22/4
f 161/12/5 162/16/5 163/17/5
f 161/12/5 164/4/5 162/16/5
f 165/1/6 166/22/6 167/23/6
f 165/1/6 168/4/6 166/22/6
f 169/1/1 170/22/1 171/23/1
f 169/1/1 172/4/1 170/22/1
f 173/1/2 174/22/2 175/23/2
f 173/1/2 176/4/2 174/22/2
f 177/1/3 178/22/3 179/23/3
f 177/1/3 180/4/3 178/22/3
f 181/1/4 182/16/4 183/21/4
f 181/1/4 184/4/4 182/16/4
f 185/1/5 186/22/5 187/23/5
f 185/1/5 188/4/5 186/22/5
f 189/1/6 190/16/6 191/21/6
f 189/1/6 192/4/6 190/16/6
f 193/12/1 194/13/1 195/14/1
f 193/12/1 196/4/1 194/13/1
f 197/12/2 198/13/2 199/14/2
f 197/12/2 200/4/2 198/13/2
f 201/1/3 202/13/3 203/15/3
f 201/1/3 204/4/3 202/13/3
f 205/12/4 206/16/4 207/17/4
f 205/12/4 208/4/4 206/16/4
f 209/1/5 210/13/5 211/15/5
f 209/1/5 212/4/5 210/13/5
f 213/12/6 214/16/6 215/17/6
f 213/12/6 216/4/6 214/16/6
f 217/6/1 218/9/1 219/10/1
f 217/6/1 220/11/1 218/9/1
f 221/6/2 222/9/2 223/10/2
f 221/6/2 224/11/2 222/9/2
f 225/6/3 226/9/3 227/10/3
f 225/6/3 228/11/3 226/9/3
f 229/6/4 230/9/4 231/10/4
f 229/6/4 232/11/4 230/9/4
f 233/6/5 234/9/5 235/10/5
f 233/6/5 236/11/5 234/9/5
f 237/6/6 238/9/6 239/10/6
f 237/6/6 240/11/6 238/9/6
f 241/24/11 242/4/11 243/24/11
f 241/24/11 244/4/11 242/4/11
f 245/24/11 246/4/11 247/24/11
f 245/24/11 248/4/11 246/4/11
f 249/5/3 250/4/3 251/5/3
f 249/5/3 252/4/3 250/4/3
f 253/24/12 254/7/12 255/25/12
f 253/24/12 256/4/12 254/7/12
f 257/5/5 258/4/5 259/5/5
f 257/5/5 260/4/5 258/4/5
f 261/24/13 262/7/13 263/25/13
f 261/24/13 264/4/13 262/7/13
