# Blender v2.74 (sub 0) OBJ File: ''
# www.blender.org
mtllib petable.mtl
o petable
v 0.312500 1.000000 0.312500
v -0.312500 0.937500 0.312500
v 0.312500 0.937500 0.312500
v -0.312500 1.000000 0.312500
v -0.312500 1.000000 -0.312500
v 0.312500 0.937500 -0.312500
v -0.312500 0.937500 -0.312500
v 0.312500 1.000000 -0.312500
v 0.312500 1.000000 -0.312500
v 0.312500 0.937500 0.312500
v 0.312500 0.937500 -0.312500
v 0.312500 1.000000 0.312500
v 0.312500 0.937500 0.312500
v -0.312500 0.937500 -0.312500
v 0.312500 0.937500 -0.312500
v -0.312500 0.937500 0.312500
v -0.312500 1.000000 0.312500
v -0.312500 0.937500 -0.312500
v -0.312500 0.937500 0.312500
v -0.312500 1.000000 -0.312500
v 0.312500 1.000000 -0.312500
v -0.312500 1.000000 0.312500
v 0.312500 1.000000 0.312500
v -0.312500 1.000000 -0.312500
v 0.281250 0.937500 -0.218750
v 0.218750 0.000000 -0.218750
v 0.281250 0.000000 -0.218750
v 0.218750 0.937500 -0.218750
v 0.218750 0.937500 -0.281250
v 0.281250 0.000000 -0.281250
v 0.218750 0.000000 -0.281250
v 0.281250 0.937500 -0.281250
v 0.281250 0.937500 -0.281250
v 0.281250 0.000000 -0.218750
v 0.281250 0.000000 -0.281250
v 0.281250 0.937500 -0.218750
v 0.281250 0.000000 -0.218750
v 0.218750 0.000000 -0.281250
v 0.281250 0.000000 -0.281250
v 0.218750 0.000000 -0.218750
v 0.218750 0.937500 -0.218750
v 0.218750 0.000000 -0.281250
v 0.218750 0.000000 -0.218750
v 0.218750 0.937500 -0.281250
v 0.281250 0.937500 -0.281250
v 0.218750 0.937500 -0.218750
v 0.281250 0.937500 -0.218750
v 0.218750 0.937500 -0.281250
v 0.281250 0.937500 0.281250
v 0.218750 -0.000000 0.281250
v 0.281250 -0.000000 0.281250
v 0.218750 0.937500 0.281250
v 0.218750 0.937500 0.218750
v 0.281250 -0.000000 0.218750
v 0.218750 -0.000000 0.218750
v 0.281250 0.937500 0.218750
v 0.281250 0.937500 0.218750
v 0.281250 -0.000000 0.281250
v 0.281250 -0.000000 0.218750
v 0.281250 0.937500 0.281250
v 0.281250 -0.000000 0.281250
v 0.218750 -0.000000 0.218750
v 0.281250 -0.000000 0.218750
v 0.218750 -0.000000 0.281250
v 0.218750 0.937500 0.281250
v 0.218750 -0.000000 0.218750
v 0.218750 -0.000000 0.281250
v 0.218750 0.937500 0.218750
v 0.281250 0.937500 0.218750
v 0.218750 0.937500 0.281250
v 0.281250 0.937500 0.281250
v 0.218750 0.937500 0.218750
v -0.218750 0.937500 0.281250
v -0.281250 -0.000000 0.281250
v -0.218750 -0.000000 0.281250
v -0.281250 0.937500 0.281250
v -0.281250 0.937500 0.218750
v -0.218750 -0.000000 0.218750
v -0.281250 -0.000000 0.218750
v -0.218750 0.937500 0.218750
v -0.218750 0.937500 0.218750
v -0.218750 -0.000000 0.281250
v -0.218750 -0.000000 0.218750
v -0.218750 0.937500 0.281250
v -0.218750 -0.000000 0.281250
v -0.281250 -0.000000 0.218750
v -0.218750 -0.000000 0.218750
v -0.281250 -0.000000 0.281250
v -0.281250 0.937500 0.281250
v -0.281250 -0.000000 0.218750
v -0.281250 -0.000000 0.281250
v -0.281250 0.937500 0.218750
v -0.218750 0.937500 0.218750
v -0.281250 0.937500 0.281250
v -0.218750 0.937500 0.281250
v -0.281250 0.937500 0.218750
v -0.218750 0.937500 -0.218750
v -0.281250 0.000000 -0.218750
v -0.218750 0.000000 -0.218750
v -0.281250 0.937500 -0.218750
v -0.281250 0.937500 -0.281250
v -0.218750 0.000000 -0.281250
v -0.281250 0.000000 -0.281250
v -0.218750 0.937500 -0.281250
v -0.218750 0.937500 -0.281250
v -0.218750 0.000000 -0.218750
v -0.218750 0.000000 -0.281250
v -0.218750 0.937500 -0.218750
v -0.218750 0.000000 -0.218750
v -0.281250 0.000000 -0.281250
v -0.218750 0.000000 -0.281250
v -0.281250 0.000000 -0.218750
v -0.281250 0.937500 -0.218750
v -0.281250 0.000000 -0.281250
v -0.281250 0.000000 -0.218750
v -0.281250 0.937500 -0.281250
v -0.218750 0.937500 -0.281250
v -0.281250 0.937500 -0.218750
v -0.218750 0.937500 -0.218750
v -0.281250 0.937500 -0.281250
vt 0.625000 1.000000
vt 0.000000 0.937500
vt 0.625000 0.937500
vt 0.000000 1.000000
vt 0.000000 0.375000
vt 0.625000 0.375000
vt 0.062500 1.000000
vt 0.000000 0.062500
vt 0.062500 0.062500
vt 0.062500 0.937500
vt 0.562500 0.062500
vt 0.625000 0.062500
vt 0.562500 1.000000
vt 0.562500 0.937500
vt 0.250000 1.000000
vt 0.187500 0.062500
vt 0.250000 0.062500
vt 0.187500 1.000000
vt 0.187500 0.937500
vt 0.250000 0.937500
vt 0.437500 1.000000
vt 0.375000 0.062500
vt 0.437500 0.062500
vt 0.375000 1.000000
vt 0.375000 0.937500
vt 0.437500 0.937500
vn 0.000000 0.000000 1.000000
vn 0.000000 0.000000 -1.000000
vn 1.000000 0.000000 0.000000
vn 0.000000 -1.000000 -0.000000
vn -1.000000 0.000000 0.000000
vn 0.000000 1.000000 0.000000
usemtl None
s 1
f 1/1/1 2/2/1 3/3/1
f 1/1/1 4/4/1 2/2/1
f 5/1/2 6/2/2 7/3/2
f 5/1/2 8/4/2 6/2/2
f 9/1/3 10/2/3 11/3/3
f 9/1/3 12/4/3 10/2/3
f 13/1/4 14/5/4 15/6/4
f 13/1/4 16/4/4 14/5/4
f 17/1/5 18/2/5 19/3/5
f 17/1/5 20/4/5 18/2/5
f 21/1/6 22/5/6 23/6/6
f 21/1/6 24/4/6 22/5/6
f 25/7/1 26/8/1 27/9/1
f 25/7/1 28/4/1 26/8/1
f 29/7/2 30/8/2 31/9/2
f 29/7/2 32/4/2 30/8/2
f 33/7/3 34/8/3 35/9/3
f 33/7/3 36/4/3 34/8/3
f 37/7/4 38/2/4 39/10/4
f 37/7/4 40/4/4 38/2/4
f 41/7/5 42/8/5 43/9/5
f 41/7/5 44/4/5 42/8/5
f 45/7/6 46/2/6 47/10/6
f 45/7/6 48/4/6 46/2/6
f 49/1/1 50/11/1 51/12/1
f 49/1/1 52/13/1 50/11/1
f 53/1/2 54/11/2 55/12/2
f 53/1/2 56/13/2 54/11/2
f 57/1/3 58/11/3 59/12/3
f 57/1/3 60/13/3 58/11/3
f 61/1/4 62/14/4 63/3/4
f 61/1/4 64/13/4 62/14/4
f 65/1/5 66/11/5 67/12/5
f 65/1/5 68/13/5 66/11/5
f 69/1/6 70/14/6 71/3/6
f 69/1/6 72/13/6 70/14/6
f 73/15/1 74/16/1 75/17/1
f 73/15/1 76/18/1 74/16/1
f 77/15/2 78/16/2 79/17/2
f 77/15/2 80/18/2 78/16/2
f 81/15/3 82/16/3 83/17/3
f 81/15/3 84/18/3 82/16/3
f 85/15/4 86/19/4 87/20/4
f 85/15/4 88/18/4 86/19/4
f 89/15/5 90/16/5 91/17/5
f 89/15/5 92/18/5 90/16/5
f 93/15/6 94/19/6 95/20/6
f 93/15/6 96/18/6 94/19/6
f 97/21/1 98/22/1 99/23/1
f 97/21/1 100/24/1 98/22/1
f 101/21/2 102/22/2 103/23/2
f 101/21/2 104/24/2 102/22/2
f 105/21/3 106/22/3 107/23/3
f 105/21/3 108/24/3 106/22/3
f 109/21/4 110/25/4 111/26/4
f 109/21/4 112/24/4 110/25/4
f 113/21/5 114/22/5 115/23/5
f 113/21/5 116/24/5 114/22/5
f 117/21/6 118/25/6 119/26/6
f 117/21/6 120/24/6 118/25/6
