# Blender v2.74 (sub 0) OBJ File: ''
# www.blender.org
mtllib Placard1BlocF.mtl
o Placard1BlocF
v 0.500000 0.062500 0.500000
v -0.500000 -0.000000 0.500000
v 0.500000 -0.000000 0.500000
v -0.500000 0.062500 0.500000
v -0.500000 0.062500 -0.500000
v 0.500000 0.000000 -0.500000
v -0.500000 0.000000 -0.500000
v 0.500000 0.062500 -0.500000
v 0.500000 0.062500 -0.500000
v 0.500000 -0.000000 0.500000
v 0.500000 0.000000 -0.500000
v 0.500000 0.062500 0.500000
v 0.500000 -0.000000 0.500000
v -0.500000 0.000000 -0.500000
v 0.500000 0.000000 -0.500000
v -0.500000 -0.000000 0.500000
v -0.500000 0.062500 0.500000
v -0.500000 0.000000 -0.500000
v -0.500000 -0.000000 0.500000
v -0.500000 0.062500 -0.500000
v 0.500000 0.062500 -0.500000
v -0.500000 0.062500 0.500000
v 0.500000 0.062500 0.500000
v -0.500000 0.062500 -0.500000
v 0.500000 1.000000 0.500000
v -0.500000 0.937500 0.500000
v 0.500000 0.937500 0.500000
v -0.500000 1.000000 0.500000
v -0.500000 1.000000 -0.500000
v 0.500000 0.937500 -0.500000
v -0.500000 0.937500 -0.500000
v 0.500000 1.000000 -0.500000
v 0.500000 1.000000 -0.500000
v 0.500000 0.937500 0.500000
v 0.500000 0.937500 -0.500000
v 0.500000 1.000000 0.500000
v 0.500000 0.937500 0.500000
v -0.500000 0.937500 -0.500000
v 0.500000 0.937500 -0.500000
v -0.500000 0.937500 0.500000
v -0.500000 1.000000 0.500000
v -0.500000 0.937500 -0.500000
v -0.500000 0.937500 0.500000
v -0.500000 1.000000 -0.500000
v 0.500000 1.000000 -0.500000
v -0.500000 1.000000 0.500000
v 0.500000 1.000000 0.500000
v -0.500000 1.000000 -0.500000
v -0.437500 0.937500 0.500000
v -0.500000 0.062500 0.500000
v -0.437500 0.062500 0.500000
v -0.500000 0.937500 0.500000
v -0.500000 0.937500 -0.500000
v -0.437500 0.062500 -0.500000
v -0.500000 0.062500 -0.500000
v -0.437500 0.937500 -0.500000
v -0.437500 0.937500 -0.500000
v -0.437500 0.062500 0.500000
v -0.437500 0.062500 -0.500000
v -0.437500 0.937500 0.500000
v -0.437500 0.062500 0.500000
v -0.500000 0.062500 -0.500000
v -0.437500 0.062500 -0.500000
v -0.500000 0.062500 0.500000
v -0.500000 0.937500 0.500000
v -0.500000 0.062500 -0.500000
v -0.500000 0.062500 0.500000
v -0.500000 0.937500 -0.500000
v -0.437500 0.937500 -0.500000
v -0.500000 0.937500 0.500000
v -0.437500 0.937500 0.500000
v -0.500000 0.937500 -0.500000
v 0.500000 0.937500 0.500000
v 0.437500 0.062500 0.500000
v 0.500000 0.062500 0.500000
v 0.437500 0.937500 0.500000
v 0.437500 0.937500 -0.500000
v 0.500000 0.062500 -0.500000
v 0.437500 0.062500 -0.500000
v 0.500000 0.937500 -0.500000
v 0.500000 0.937500 -0.500000
v 0.500000 0.062500 0.500000
v 0.500000 0.062500 -0.500000
v 0.500000 0.937500 0.500000
v 0.500000 0.062500 0.500000
v 0.437500 0.062500 -0.500000
v 0.500000 0.062500 -0.500000
v 0.437500 0.062500 0.500000
v 0.437500 0.937500 0.500000
v 0.437500 0.062500 -0.500000
v 0.437500 0.062500 0.500000
v 0.437500 0.937500 -0.500000
v 0.500000 0.937500 -0.500000
v 0.437500 0.937500 0.500000
v 0.500000 0.937500 0.500000
v 0.437500 0.937500 -0.500000
v 0.437500 0.937500 -0.437500
v -0.437500 0.062500 -0.437500
v 0.437500 0.062500 -0.437500
v -0.437500 0.937500 -0.437500
v -0.437500 0.937500 -0.500000
v 0.437500 0.062500 -0.500000
v -0.437500 0.062500 -0.500000
v 0.437500 0.937500 -0.500000
v 0.437500 0.937500 -0.500000
v 0.437500 0.062500 -0.437500
v 0.437500 0.062500 -0.500000
v 0.437500 0.937500 -0.437500
v 0.437500 0.062500 -0.437500
v -0.437500 0.062500 -0.500000
v 0.437500 0.062500 -0.500000
v -0.437500 0.062500 -0.437500
v -0.437500 0.937500 -0.437500
v -0.437500 0.062500 -0.500000
v -0.437500 0.062500 -0.437500
v -0.437500 0.937500 -0.500000
v 0.437500 0.937500 -0.500000
v -0.437500 0.937500 -0.437500
v 0.437500 0.937500 -0.437500
v -0.437500 0.937500 -0.500000
v 0.437500 0.531250 0.437500
v -0.437500 0.468750 0.437500
v 0.437500 0.468750 0.437500
v -0.437500 0.531250 0.437500
v -0.437500 0.531250 -0.437500
v 0.437500 0.468750 -0.437500
v -0.437500 0.468750 -0.437500
v 0.437500 0.531250 -0.437500
v 0.437500 0.531250 -0.437500
v 0.437500 0.468750 0.437500
v 0.437500 0.468750 -0.437500
v 0.437500 0.531250 0.437500
v 0.437500 0.468750 0.437500
v -0.437500 0.468750 -0.437500
v 0.437500 0.468750 -0.437500
v -0.437500 0.468750 0.437500
v -0.437500 0.531250 0.437500
v -0.437500 0.468750 -0.437500
v -0.437500 0.468750 0.437500
v -0.437500 0.531250 -0.437500
v 0.437500 0.531250 -0.437500
v -0.437500 0.531250 0.437500
v 0.437500 0.531250 0.437500
v -0.437500 0.531250 -0.437500
v 0.437500 0.937500 0.531250
v -0.437500 0.062500 0.531250
v 0.437500 0.062500 0.531250
v -0.437500 0.937500 0.531250
v -0.437500 0.937500 0.468750
v 0.437500 0.062500 0.468750
v -0.437500 0.062500 0.468750
v 0.437500 0.937500 0.468750
v 0.437500 0.937500 0.468750
v 0.437500 0.062500 0.531250
v 0.437500 0.062500 0.468750
v 0.437500 0.937500 0.531250
v 0.437500 0.062500 0.531250
v -0.437500 0.062500 0.468750
v 0.437500 0.062500 0.468750
v -0.437500 0.062500 0.531250
v -0.437500 0.937500 0.531250
v -0.437500 0.062500 0.468750
v -0.437500 0.062500 0.531250
v -0.437500 0.937500 0.468750
v 0.437500 0.937500 0.468750
v -0.437500 0.937500 0.531250
v 0.437500 0.937500 0.531250
v -0.437500 0.937500 0.468750
v -0.281250 0.593750 0.562500
v -0.343750 0.406250 0.562500
v -0.281250 0.406250 0.562500
v -0.343750 0.593750 0.562500
v -0.343750 0.593750 0.500000
v -0.281250 0.406250 0.500000
v -0.343750 0.406250 0.500000
v -0.281250 0.593750 0.500000
v -0.281250 0.593750 0.500000
v -0.281250 0.406250 0.562500
v -0.281250 0.406250 0.500000
v -0.281250 0.593750 0.562500
v -0.281250 0.406250 0.562500
v -0.343750 0.406250 0.500000
v -0.281250 0.406250 0.500000
v -0.343750 0.406250 0.562500
v -0.343750 0.593750 0.562500
v -0.343750 0.406250 0.500000
v -0.343750 0.406250 0.562500
v -0.343750 0.593750 0.500000
v -0.281250 0.593750 0.500000
v -0.343750 0.593750 0.562500
v -0.281250 0.593750 0.562500
v -0.343750 0.593750 0.500000
vt 0.500000 0.500000
vt 0.250000 0.468750
vt 0.500000 0.468750
vt 0.250000 0.500000
vt 1.000000 0.500000
vt 0.750000 0.468750
vt 1.000000 0.468750
vt 0.750000 0.500000
vt 0.750000 1.000000
vt 0.500000 1.000000
vt 0.000000 0.468750
vt 0.000000 0.500000
vt 0.250000 1.000000
vt 0.265625 0.500000
vt 0.250000 0.062500
vt 0.265625 0.062500
vt 0.531250 0.500000
vt 0.515625 0.062500
vt 0.531250 0.062500
vt 0.515625 0.500000
vt 0.281250 1.000000
vt 0.281250 0.500000
vt 0.265625 1.000000
vt 0.000000 0.062500
vt 0.234375 0.968750
vt 0.015625 0.531250
vt 0.234375 0.531250
vt 0.015625 0.968750
vt 0.468750 0.968750
vt 0.250000 0.531250
vt 0.468750 0.531250
vt 0.250000 0.968750
vt 0.453125 1.000000
vt 0.453125 0.968750
vt 0.234375 1.000000
vt 0.000000 0.531250
vt 0.000000 0.968750
vt 0.015625 1.000000
vt 0.437500 0.562500
vt 0.218750 0.531250
vt 0.437500 0.531250
vt 0.218750 0.562500
vt 0.875000 0.562500
vt 0.656250 0.531250
vt 0.875000 0.531250
vt 0.656250 0.562500
vt 0.656250 1.000000
vt 0.437500 1.000000
vt 0.000000 0.562500
vt 0.218750 1.000000
vt 0.562500 0.437500
vt 0.546875 0.343750
vt 0.562500 0.343750
vt 0.546875 0.437500
vt 0.593750 0.437500
vt 0.578125 0.343750
vt 0.593750 0.343750
vt 0.578125 0.437500
vt 0.578125 0.468750
vt 0.562500 0.468750
vt 0.531250 0.343750
vt 0.531250 0.437500
vt 0.546875 0.468750
vn 0.000000 0.000000 1.000000
vn 0.000000 0.000000 -1.000000
vn 1.000000 0.000000 0.000000
vn 0.000000 -1.000000 -0.000000
vn -1.000000 0.000000 0.000000
vn 0.000000 1.000000 0.000000
usemtl None
s 1
f 1/1/1 2/2/1 3/3/1
f 1/1/1 4/4/1 2/2/1
f 5/5/2 6/6/2 7/7/2
f 5/5/2 8/8/2 6/6/2
f 9/8/3 10/3/3 11/6/3
f 9/8/3 12/1/3 10/3/3
f 13/9/4 14/1/4 15/8/4
f 13/9/4 16/10/4 14/1/4
f 17/4/5 18/11/5 19/2/5
f 17/4/5 20/12/5 18/11/5
f 21/10/6 22/4/6 23/1/6
f 21/10/6 24/13/6 22/4/6
f 25/1/1 26/2/1 27/3/1
f 25/1/1 28/4/1 26/2/1
f 29/5/2 30/6/2 31/7/2
f 29/5/2 32/8/2 30/6/2
f 33/8/3 34/3/3 35/6/3
f 33/8/3 36/1/3 34/3/3
f 37/9/4 38/1/4 39/8/4
f 37/9/4 40/10/4 38/1/4
f 41/4/5 42/11/5 43/2/5
f 41/4/5 44/12/5 42/11/5
f 45/10/6 46/4/6 47/1/6
f 45/10/6 48/13/6 46/4/6
f 49/14/1 50/15/1 51/16/1
f 49/14/1 52/4/1 50/15/1
f 53/17/2 54/18/2 55/19/2
f 53/17/2 56/20/2 54/18/2
f 57/20/3 58/16/3 59/18/3
f 57/20/3 60/14/3 58/16/3
f 61/21/4 62/14/4 63/22/4
f 61/21/4 64/23/4 62/14/4
f 65/4/5 66/24/5 67/15/5
f 65/4/5 68/12/5 66/24/5
f 69/23/6 70/4/6 71/14/6
f 69/23/6 72/13/6 70/4/6
f 73/14/1 74/15/1 75/16/1
f 73/14/1 76/4/1 74/15/1
f 77/17/2 78/18/2 79/19/2
f 77/17/2 80/20/2 78/18/2
f 81/20/3 82/16/3 83/18/3
f 81/20/3 84/14/3 82/16/3
f 85/21/4 86/14/4 87/22/4
f 85/21/4 88/23/4 86/14/4
f 89/4/5 90/24/5 91/15/5
f 89/4/5 92/12/5 90/24/5
f 93/23/6 94/4/6 95/14/6
f 93/23/6 96/13/6 94/4/6
f 97/25/1 98/26/1 99/27/1
f 97/25/1 100/28/1 98/26/1
f 101/29/2 102/30/2 103/31/2
f 101/29/2 104/32/2 102/30/2
f 105/32/3 106/27/3 107/30/3
f 105/32/3 108/25/3 106/27/3
f 109/33/4 110/25/4 111/34/4
f 109/33/4 112/35/4 110/25/4
f 113/28/5 114/36/5 115/26/5
f 113/28/5 116/37/5 114/36/5
f 117/35/6 118/28/6 119/25/6
f 117/35/6 120/38/6 118/28/6
f 121/39/1 122/40/1 123/41/1
f 121/39/1 124/42/1 122/40/1
f 125/43/2 126/44/2 127/45/2
f 125/43/2 128/46/2 126/44/2
f 129/46/3 130/41/3 131/44/3
f 129/46/3 132/39/3 130/41/3
f 133/47/4 134/39/4 135/46/4
f 133/47/4 136/48/4 134/39/4
f 137/42/5 138/36/5 139/40/5
f 137/42/5 140/49/5 138/36/5
f 141/48/6 142/42/6 143/39/6
f 141/48/6 144/50/6 142/42/6
f 145/25/1 146/26/1 147/27/1
f 145/25/1 148/28/1 146/26/1
f 149/29/2 150/30/2 151/31/2
f 149/29/2 152/32/2 150/30/2
f 153/32/3 154/27/3 155/30/3
f 153/32/3 156/25/3 154/27/3
f 157/33/4 158/25/4 159/34/4
f 157/33/4 160/35/4 158/25/4
f 161/28/5 162/36/5 163/26/5
f 161/28/5 164/37/5 162/36/5
f 165/35/6 166/28/6 167/25/6
f 165/35/6 168/38/6 166/28/6
f 169/51/1 170/52/1 171/53/1
f 169/51/1 172/54/1 170/52/1
f 173/55/2 174/56/2 175/57/2
f 173/55/2 176/58/2 174/56/2
f 177/58/3 178/53/3 179/56/3
f 177/58/3 180/51/3 178/53/3
f 181/59/4 182/51/4 183/58/4
f 181/59/4 184/60/4 182/51/4
f 185/54/5 186/61/5 187/52/5
f 185/54/5 188/62/5 186/61/5
f 189/60/6 190/54/6 191/51/6
f 189/60/6 192/63/6 190/54/6
