# Blender v2.74 (sub 0) OBJ File: ''
# www.blender.org
mtllib poub.mtl
o poub
v 0.281250 1.062500 0.281250
v -0.281250 0.187500 0.281250
v 0.281250 0.187500 0.281250
v -0.281250 1.062500 0.281250
v -0.281250 1.062500 -0.281250
v 0.281250 0.187500 -0.281250
v -0.281250 0.187500 -0.281250
v 0.281250 1.062500 -0.281250
v 0.281250 1.062500 -0.281250
v 0.281250 0.187500 0.281250
v 0.281250 0.187500 -0.281250
v 0.281250 1.062500 0.281250
v 0.281250 0.187500 0.281250
v -0.281250 0.187500 -0.281250
v 0.281250 0.187500 -0.281250
v -0.281250 0.187500 0.281250
v -0.281250 1.062500 0.281250
v -0.281250 0.187500 -0.281250
v -0.281250 0.187500 0.281250
v -0.281250 1.062500 -0.281250
v 0.281250 1.062500 -0.281250
v -0.281250 1.062500 0.281250
v 0.281250 1.062500 0.281250
v -0.281250 1.062500 -0.281250
v 0.343750 0.178125 -0.165625
v 0.281250 0.009375 -0.165625
v 0.343750 0.009375 -0.165625
v 0.281250 0.178125 -0.165625
v 0.281250 0.178125 -0.334375
v 0.343750 0.009375 -0.334375
v 0.281250 0.009375 -0.334375
v 0.343750 0.178125 -0.334375
v 0.343750 0.178125 -0.334375
v 0.343750 0.009375 -0.165625
v 0.343750 0.009375 -0.334375
v 0.343750 0.178125 -0.165625
v 0.343750 0.009375 -0.165625
v 0.281250 0.009375 -0.334375
v 0.343750 0.009375 -0.334375
v 0.281250 0.009375 -0.165625
v 0.281250 0.178125 -0.165625
v 0.281250 0.009375 -0.334375
v 0.281250 0.009375 -0.165625
v 0.281250 0.178125 -0.334375
v 0.343750 0.178125 -0.334375
v 0.281250 0.178125 -0.165625
v 0.343750 0.178125 -0.165625
v 0.281250 0.178125 -0.334375
v 0.281250 0.125000 -0.218750
v -0.281250 0.062500 -0.218750
v 0.281250 0.062500 -0.218750
v -0.281250 0.125000 -0.218750
v -0.281250 0.125000 -0.281250
v 0.281250 0.062500 -0.281250
v -0.281250 0.062500 -0.281250
v 0.281250 0.125000 -0.281250
v 0.281250 0.125000 -0.281250
v 0.281250 0.062500 -0.218750
v 0.281250 0.062500 -0.281250
v 0.281250 0.125000 -0.218750
v 0.281250 0.062500 -0.218750
v -0.281250 0.062500 -0.281250
v 0.281250 0.062500 -0.281250
v -0.281250 0.062500 -0.218750
v -0.281250 0.125000 -0.218750
v -0.281250 0.062500 -0.281250
v -0.281250 0.062500 -0.218750
v -0.281250 0.125000 -0.281250
v 0.281250 0.125000 -0.281250
v -0.281250 0.125000 -0.218750
v 0.281250 0.125000 -0.218750
v -0.281250 0.125000 -0.281250
v 0.267500 0.187500 0.267500
v -0.267500 -0.000000 0.267500
v 0.267500 -0.000000 0.267500
v -0.267500 0.187500 0.267500
v -0.267500 0.187500 -0.267500
v 0.267500 0.000000 -0.267500
v -0.267500 0.000000 -0.267500
v 0.267500 0.187500 -0.267500
v 0.267500 0.187500 -0.267500
v 0.267500 -0.000000 0.267500
v 0.267500 0.000000 -0.267500
v 0.267500 0.187500 0.267500
v 0.267500 -0.000000 0.267500
v -0.267500 0.000000 -0.267500
v 0.267500 0.000000 -0.267500
v -0.267500 -0.000000 0.267500
v -0.267500 0.187500 0.267500
v -0.267500 0.000000 -0.267500
v -0.267500 -0.000000 0.267500
v -0.267500 0.187500 -0.267500
v 0.267500 0.187500 -0.267500
v -0.267500 0.187500 0.267500
v 0.267500 0.187500 0.267500
v -0.267500 0.187500 -0.267500
v -0.281250 0.178125 -0.165625
v -0.343750 0.009375 -0.165625
v -0.281250 0.009375 -0.165625
v -0.343750 0.178125 -0.165625
v -0.343750 0.178125 -0.334375
v -0.281250 0.009375 -0.334375
v -0.343750 0.009375 -0.334375
v -0.281250 0.178125 -0.334375
v -0.281250 0.178125 -0.334375
v -0.281250 0.009375 -0.165625
v -0.281250 0.009375 -0.334375
v -0.281250 0.178125 -0.165625
v -0.281250 0.009375 -0.165625
v -0.343750 0.009375 -0.334375
v -0.281250 0.009375 -0.334375
v -0.343750 0.009375 -0.165625
v -0.343750 0.178125 -0.165625
v -0.343750 0.009375 -0.334375
v -0.343750 0.009375 -0.165625
v -0.343750 0.178125 -0.334375
v -0.281250 0.178125 -0.334375
v -0.343750 0.178125 -0.165625
v -0.281250 0.178125 -0.165625
v -0.343750 0.178125 -0.334375
v 0.312500 1.125000 0.312500
v -0.312500 1.062500 0.312500
v 0.312500 1.062500 0.312500
v -0.312500 1.125000 0.312500
v -0.312500 1.125000 -0.312500
v 0.312500 1.062500 -0.312500
v -0.312500 1.062500 -0.312500
v 0.312500 1.125000 -0.312500
v 0.312500 1.125000 -0.312500
v 0.312500 1.062500 0.312500
v 0.312500 1.062500 -0.312500
v 0.312500 1.125000 0.312500
v 0.312500 1.062500 0.312500
v -0.312500 1.062500 -0.312500
v 0.312500 1.062500 -0.312500
v -0.312500 1.062500 0.312500
v -0.312500 1.125000 0.312500
v -0.312500 1.062500 -0.312500
v -0.312500 1.062500 0.312500
v -0.312500 1.125000 -0.312500
v 0.312500 1.125000 -0.312500
v -0.312500 1.125000 0.312500
v 0.312500 1.125000 0.312500
v -0.312500 1.125000 -0.312500
v 0.281250 1.153125 0.281250
v -0.281250 1.121875 0.281250
v 0.281250 1.121875 0.281250
v -0.281250 1.153125 0.281250
v -0.281250 1.153125 -0.281250
v 0.281250 1.121875 -0.281250
v -0.281250 1.121875 -0.281250
v 0.281250 1.153125 -0.281250
v 0.281250 1.153125 -0.281250
v 0.281250 1.121875 0.281250
v 0.281250 1.121875 -0.281250
v 0.281250 1.153125 0.281250
v 0.281250 1.121875 0.281250
v -0.281250 1.121875 -0.281250
v 0.281250 1.121875 -0.281250
v -0.281250 1.121875 0.281250
v -0.281250 1.153125 0.281250
v -0.281250 1.121875 -0.281250
v -0.281250 1.121875 0.281250
v -0.281250 1.153125 -0.281250
v 0.281250 1.153125 -0.281250
v -0.281250 1.153125 0.281250
v 0.281250 1.153125 0.281250
v -0.281250 1.153125 -0.281250
v 0.250000 1.199439 0.248816
v -0.250000 1.150141 0.250537
v 0.250000 1.150141 0.250537
v -0.250000 1.199439 0.248816
v -0.250000 1.179808 -0.313342
v 0.250000 1.130510 -0.311620
v -0.250000 1.130510 -0.311620
v 0.250000 1.179808 -0.313342
v 0.250000 1.179808 -0.313342
v 0.250000 1.150141 0.250537
v 0.250000 1.130510 -0.311620
v 0.250000 1.199439 0.248816
v 0.250000 1.150141 0.250537
v -0.250000 1.130510 -0.311620
v 0.250000 1.130510 -0.311620
v -0.250000 1.150141 0.250537
v -0.250000 1.199439 0.248816
v -0.250000 1.130510 -0.311620
v -0.250000 1.150141 0.250537
v -0.250000 1.179808 -0.313342
v 0.250000 1.179808 -0.313342
v -0.250000 1.199439 0.248816
v 0.250000 1.199439 0.248816
v -0.250000 1.179808 -0.313342
v 0.281250 1.207125 0.280580
v -0.281250 1.188387 0.281235
v 0.281250 1.188387 0.281235
v -0.281250 1.207125 0.280580
v -0.281250 1.187494 -0.281577
v 0.281250 1.168756 -0.280923
v -0.281250 1.168756 -0.280923
v 0.281250 1.187494 -0.281577
v 0.281250 1.187494 -0.281577
v 0.281250 1.188387 0.281235
v 0.281250 1.168756 -0.280923
v 0.281250 1.207125 0.280580
v 0.281250 1.188387 0.281235
v -0.281250 1.168756 -0.280923
v 0.281250 1.168756 -0.280923
v -0.281250 1.188387 0.281235
v -0.281250 1.207125 0.280580
v -0.281250 1.168756 -0.280923
v -0.281250 1.188387 0.281235
v -0.281250 1.187494 -0.281577
v 0.281250 1.187494 -0.281577
v -0.281250 1.207125 0.280580
v 0.281250 1.207125 0.280580
v -0.281250 1.187494 -0.281577
v 0.281250 1.187500 -0.281250
v -0.281250 1.125000 -0.281250
v 0.281250 1.125000 -0.281250
v -0.281250 1.187500 -0.281250
v -0.281250 1.187500 -0.343750
v 0.281250 1.125000 -0.343750
v -0.281250 1.125000 -0.343750
v 0.281250 1.187500 -0.343750
v 0.281250 1.187500 -0.343750
v 0.281250 1.125000 -0.281250
v 0.281250 1.125000 -0.343750
v 0.281250 1.187500 -0.281250
v 0.281250 1.125000 -0.281250
v -0.281250 1.125000 -0.343750
v 0.281250 1.125000 -0.343750
v -0.281250 1.125000 -0.281250
v -0.281250 1.187500 -0.281250
v -0.281250 1.125000 -0.343750
v -0.281250 1.125000 -0.281250
v -0.281250 1.187500 -0.343750
v 0.281250 1.187500 -0.343750
v -0.281250 1.187500 -0.281250
v 0.281250 1.187500 -0.281250
v -0.281250 1.187500 -0.343750
v -0.249375 1.185370 -0.327574
v -0.280625 1.125000 -0.343750
v -0.249375 1.125000 -0.343750
v -0.280625 1.185370 -0.327574
v -0.280625 1.201547 -0.387944
v -0.249375 1.141176 -0.404120
v -0.280625 1.141176 -0.404120
v -0.249375 1.201547 -0.387944
v -0.249375 1.201547 -0.387944
v -0.249375 1.125000 -0.343750
v -0.249375 1.141176 -0.404120
v -0.249375 1.185370 -0.327574
v -0.249375 1.125000 -0.343750
v -0.280625 1.141176 -0.404120
v -0.249375 1.141176 -0.404120
v -0.280625 1.125000 -0.343750
v -0.280625 1.185370 -0.327574
v -0.280625 1.141176 -0.404120
v -0.280625 1.125000 -0.343750
v -0.280625 1.201547 -0.387944
v -0.249375 1.201547 -0.387944
v -0.280625 1.185370 -0.327574
v -0.249375 1.185370 -0.327574
v -0.280625 1.201547 -0.387944
v 0.281250 1.185370 -0.327574
v 0.250000 1.125000 -0.343750
v 0.281250 1.125000 -0.343750
v 0.250000 1.185370 -0.327574
v 0.250000 1.201547 -0.387944
v 0.281250 1.141176 -0.404120
v 0.250000 1.141176 -0.404120
v 0.281250 1.201547 -0.387944
v 0.281250 1.201547 -0.387944
v 0.281250 1.125000 -0.343750
v 0.281250 1.141176 -0.404120
v 0.281250 1.185370 -0.327574
v 0.281250 1.125000 -0.343750
v 0.250000 1.141176 -0.404120
v 0.281250 1.141176 -0.404120
v 0.250000 1.125000 -0.343750
v 0.250000 1.185370 -0.327574
v 0.250000 1.141176 -0.404120
v 0.250000 1.125000 -0.343750
v 0.250000 1.201547 -0.387944
v 0.281250 1.201547 -0.387944
v 0.250000 1.185370 -0.327574
v 0.281250 1.185370 -0.327574
v 0.250000 1.201547 -0.387944
v 0.250625 1.178958 -0.351939
v -0.249375 1.142736 -0.361644
v 0.250625 1.142736 -0.361644
v -0.249375 1.178958 -0.351939
v -0.249375 1.188664 -0.388161
v 0.250625 1.152442 -0.397866
v -0.249375 1.152442 -0.397866
v 0.250625 1.188664 -0.388161
v 0.250625 1.188664 -0.388161
v 0.250625 1.142736 -0.361644
v 0.250625 1.152442 -0.397866
v 0.250625 1.178958 -0.351939
v 0.250625 1.142736 -0.361644
v -0.249375 1.152442 -0.397866
v 0.250625 1.152442 -0.397866
v -0.249375 1.142736 -0.361644
v -0.249375 1.178958 -0.351939
v -0.249375 1.152442 -0.397866
v -0.249375 1.142736 -0.361644
v -0.249375 1.188664 -0.388161
v 0.250625 1.188664 -0.388161
v -0.249375 1.178958 -0.351939
v 0.250625 1.178958 -0.351939
v -0.249375 1.188664 -0.388161
vt 0.281250 1.000000
vt 0.000000 0.562500
vt 0.281250 0.562500
vt 0.000000 1.000000
vt 0.000000 0.718750
vt 0.281250 0.718750
vt 0.312500 1.000000
vt 0.281250 0.812500
vt 0.312500 0.812500
vt 0.468750 1.000000
vt 0.468750 0.812500
vt 0.562500 1.000000
vt 0.281250 0.968750
vt 0.562500 0.968750
vt 0.312500 0.968750
vt 0.250000 0.625000
vt 0.000000 0.531250
vt 0.250000 0.531250
vt 0.000000 0.625000
vt 0.281250 0.625000
vt 0.031250 0.531250
vt 0.281250 0.531250
vt 0.031250 0.625000
vt 0.531250 0.812500
vt 0.531250 0.562500
vt 0.031250 0.562500
vt 0.031250 0.812500
vt 0.593750 0.812500
vt 0.281250 0.781250
vt 0.593750 0.781250
vt 0.281250 0.500000
vt 0.593750 0.500000
vt 0.000000 0.500000
vt 0.000000 0.250000
vt 0.281250 0.250000
vt 0.250000 0.500000
vt 0.250000 0.250000
vt 0.281250 0.406250
vt 0.000000 0.375000
vt 0.281250 0.375000
vt 0.000000 0.406250
vt 0.031250 0.406250
vt 0.031250 0.375000
vt 0.281250 0.593750
vt 0.031250 0.593750
vt 0.062500 0.593750
vt 0.062500 0.562500
vn 0.000000 -0.000000 1.000000
vn 0.000000 0.000000 -1.000000
vn 1.000000 0.000000 0.000000
vn 0.000000 -1.000000 -0.000000
vn -1.000000 -0.000000 0.000000
vn 0.000000 1.000000 0.000000
vn 0.000000 0.034900 0.999400
vn 0.000000 -0.034900 -0.999400
vn 0.000000 -0.999400 0.034900
vn 0.000000 0.999400 -0.034900
vn 0.000000 -0.258800 0.965900
vn 0.000000 0.258800 -0.965900
vn 0.000000 -0.965900 -0.258800
vn 0.000000 0.965900 0.258800
usemtl None
s 1
f 1/1/1 2/2/1 3/3/1
f 1/1/1 4/4/1 2/2/1
f 5/1/2 6/2/2 7/3/2
f 5/1/2 8/4/2 6/2/2
f 9/1/3 10/2/3 11/3/3
f 9/1/3 12/4/3 10/2/3
f 13/1/4 14/5/4 15/6/4
f 13/1/4 16/4/4 14/5/4
f 17/1/5 18/2/5 19/3/5
f 17/1/5 20/4/5 18/2/5
f 21/1/6 22/5/6 23/6/6
f 21/1/6 24/4/6 22/5/6
f 25/7/1 26/8/1 27/9/1
f 25/7/1 28/1/1 26/8/1
f 29/7/2 30/8/2 31/9/2
f 29/7/2 32/1/2 30/8/2
f 33/10/3 34/8/3 35/11/3
f 33/10/3 36/1/3 34/8/3
f 37/7/4 38/8/4 39/9/4
f 37/7/4 40/1/4 38/8/4
f 41/10/5 42/8/5 43/11/5
f 41/10/5 44/1/5 42/8/5
f 45/7/6 46/8/6 47/9/6
f 45/7/6 48/1/6 46/8/6
f 49/12/1 50/13/1 51/14/1
f 49/12/1 52/1/1 50/13/1
f 53/12/2 54/13/2 55/14/2
f 53/12/2 56/1/2 54/13/2
f 57/7/3 58/13/3 59/15/3
f 57/7/3 60/1/3 58/13/3
f 61/12/4 62/13/4 63/14/4
f 61/12/4 64/1/4 62/13/4
f 65/7/5 66/13/5 67/15/5
f 65/7/5 68/1/5 66/13/5
f 69/12/6 70/13/6 71/14/6
f 69/12/6 72/1/6 70/13/6
f 73/16/1 74/17/1 75/18/1
f 73/16/1 76/19/1 74/17/1
f 77/20/2 78/21/2 79/22/2
f 77/20/2 80/23/2 78/21/2
f 81/16/3 82/17/3 83/18/3
f 81/16/3 84/19/3 82/17/3
f 85/24/4 86/3/4 87/25/4
f 85/24/4 88/8/4 86/3/4
f 89/16/5 90/17/5 91/18/5
f 89/16/5 92/19/5 90/17/5
f 93/8/6 94/26/6 95/3/6
f 93/8/6 96/27/6 94/26/6
f 97/7/1 98/8/1 99/9/1
f 97/7/1 100/1/1 98/8/1
f 101/7/2 102/8/2 103/9/2
f 101/7/2 104/1/2 102/8/2
f 105/10/3 106/8/3 107/11/3
f 105/10/3 108/1/3 106/8/3
f 109/7/4 110/8/4 111/9/4
f 109/7/4 112/1/4 110/8/4
f 113/10/5 114/8/5 115/11/5
f 113/10/5 116/1/5 114/8/5
f 117/7/6 118/8/6 119/9/6
f 117/7/6 120/1/6 118/8/6
f 121/28/1 122/29/1 123/30/1
f 121/28/1 124/8/1 122/29/1
f 125/28/2 126/29/2 127/30/2
f 125/28/2 128/8/2 126/29/2
f 129/28/3 130/29/3 131/30/3
f 129/28/3 132/8/3 130/29/3
f 133/28/4 134/31/4 135/32/4
f 133/28/4 136/8/4 134/31/4
f 137/28/5 138/29/5 139/30/5
f 137/28/5 140/8/5 138/29/5
f 141/28/6 142/31/6 143/32/6
f 141/28/6 144/8/6 142/31/6
f 145/22/1 146/33/1 147/31/1
f 145/22/1 148/17/1 146/33/1
f 149/22/2 150/33/2 151/31/2
f 149/22/2 152/17/2 150/33/2
f 153/22/3 154/33/3 155/31/3
f 153/22/3 156/17/3 154/33/3
f 157/22/4 158/34/4 159/35/4
f 157/22/4 160/17/4 158/34/4
f 161/22/5 162/33/5 163/31/5
f 161/22/5 164/17/5 162/33/5
f 165/22/6 166/34/6 167/35/6
f 165/22/6 168/17/6 166/34/6
f 169/18/7 170/33/7 171/36/7
f 169/18/7 172/17/7 170/33/7
f 173/18/8 174/33/8 175/36/8
f 173/18/8 176/17/8 174/33/8
f 177/22/3 178/33/3 179/31/3
f 177/22/3 180/17/3 178/33/3
f 181/18/9 182/34/9 183/37/9
f 181/18/9 184/17/9 182/34/9
f 185/22/5 186/33/5 187/31/5
f 185/22/5 188/17/5 186/33/5
f 189/18/10 190/34/10 191/37/10
f 189/18/10 192/17/10 190/34/10
f 193/22/7 194/33/7 195/31/7
f 193/22/7 196/17/7 194/33/7
f 197/22/8 198/33/8 199/31/8
f 197/22/8 200/17/8 198/33/8
f 201/22/3 202/33/3 203/31/3
f 201/22/3 204/17/3 202/33/3
f 205/22/9 206/34/9 207/35/9
f 205/22/9 208/17/9 206/34/9
f 209/22/5 210/33/5 211/31/5
f 209/22/5 212/17/5 210/33/5
f 213/22/10 214/34/10 215/35/10
f 213/22/10 216/17/10 214/34/10
f 217/38/1 218/39/1 219/40/1
f 217/38/1 220/41/1 218/39/1
f 221/38/2 222/39/2 223/40/2
f 221/38/2 224/41/2 222/39/2
f 225/42/3 226/39/3 227/43/3
f 225/42/3 228/41/3 226/39/3
f 229/38/4 230/39/4 231/40/4
f 229/38/4 232/41/4 230/39/4
f 233/42/5 234/39/5 235/43/5
f 233/42/5 236/41/5 234/39/5
f 237/38/6 238/39/6 239/40/6
f 237/38/6 240/41/6 238/39/6
f 241/22/11 242/36/11 243/31/11
f 241/22/11 244/18/11 242/36/11
f 245/22/12 246/36/12 247/31/12
f 245/22/12 248/18/12 246/36/12
f 249/22/3 250/36/3 251/31/3
f 249/22/3 252/18/3 250/36/3
f 253/22/13 254/36/13 255/31/13
f 253/22/13 256/18/13 254/36/13
f 257/22/5 258/36/5 259/31/5
f 257/22/5 260/18/5 258/36/5
f 261/22/14 262/36/14 263/31/14
f 261/22/14 264/18/14 262/36/14
f 265/22/11 266/36/11 267/31/11
f 265/22/11 268/18/11 266/36/11
f 269/22/12 270/36/12 271/31/12
f 269/22/12 272/18/12 270/36/12
f 273/22/3 274/36/3 275/31/3
f 273/22/3 276/18/3 274/36/3
f 277/22/13 278/36/13 279/31/13
f 277/22/13 280/18/13 278/36/13
f 281/22/5 282/36/5 283/31/5
f 281/22/5 284/18/5 282/36/5
f 285/22/14 286/36/14 287/31/14
f 285/22/14 288/18/14 286/36/14
f 289/44/11 290/26/11 291/3/11
f 289/44/11 292/45/11 290/26/11
f 293/44/12 294/26/12 295/3/12
f 293/44/12 296/45/12 294/26/12
f 297/46/3 298/26/3 299/47/3
f 297/46/3 300/45/3 298/26/3
f 301/44/13 302/26/13 303/3/13
f 301/44/13 304/45/13 302/26/13
f 305/46/5 306/26/5 307/47/5
f 305/46/5 308/45/5 306/26/5
f 309/44/14 310/26/14 311/3/14
f 309/44/14 312/45/14 310/26/14
