# Blender v2.74 (sub 0) OBJ File: ''
# www.blender.org
mtllib tachev.mtl
o tachev
v 0.312500 0.937500 0.312500
v -0.312500 0.312500 0.312500
v 0.312500 0.312500 0.312500
v -0.312500 0.937500 0.312500
v -0.312500 0.937500 -0.312500
v 0.312500 0.312500 -0.312500
v -0.312500 0.312500 -0.312500
v 0.312500 0.937500 -0.312500
v 0.312500 0.937500 -0.312500
v 0.312500 0.312500 0.312500
v 0.312500 0.312500 -0.312500
v 0.312500 0.937500 0.312500
v 0.312500 0.312500 0.312500
v -0.312500 0.312500 -0.312500
v 0.312500 0.312500 -0.312500
v -0.312500 0.312500 0.312500
v -0.312500 0.937500 0.312500
v -0.312500 0.312500 -0.312500
v -0.312500 0.312500 0.312500
v -0.312500 0.937500 -0.312500
v 0.312500 0.937500 -0.312500
v -0.312500 0.937500 0.312500
v 0.312500 0.937500 0.312500
v -0.312500 0.937500 -0.312500
v 0.343750 1.000000 0.343750
v -0.343750 0.937500 0.343750
v 0.343750 0.937500 0.343750
v -0.343750 1.000000 0.343750
v -0.343750 1.000000 -0.343750
v 0.343750 0.937500 -0.343750
v -0.343750 0.937500 -0.343750
v 0.343750 1.000000 -0.343750
v 0.343750 1.000000 -0.343750
v 0.343750 0.937500 0.343750
v 0.343750 0.937500 -0.343750
v 0.343750 1.000000 0.343750
v 0.343750 0.937500 0.343750
v -0.343750 0.937500 -0.343750
v 0.343750 0.937500 -0.343750
v -0.343750 0.937500 0.343750
v -0.343750 1.000000 0.343750
v -0.343750 0.937500 -0.343750
v -0.343750 0.937500 0.343750
v -0.343750 1.000000 -0.343750
v 0.343750 1.000000 -0.343750
v -0.343750 1.000000 0.343750
v 0.343750 1.000000 0.343750
v -0.343750 1.000000 -0.343750
v 0.281250 0.843750 0.343750
v -0.281250 0.656250 0.343750
v 0.281250 0.656250 0.343750
v -0.281250 0.843750 0.343750
v -0.281250 0.843750 0.281250
v 0.281250 0.656250 0.281250
v -0.281250 0.656250 0.281250
v 0.281250 0.843750 0.281250
v 0.281250 0.843750 0.281250
v 0.281250 0.656250 0.343750
v 0.281250 0.656250 0.281250
v 0.281250 0.843750 0.343750
v 0.281250 0.656250 0.343750
v -0.281250 0.656250 0.281250
v 0.281250 0.656250 0.281250
v -0.281250 0.656250 0.343750
v -0.281250 0.843750 0.343750
v -0.281250 0.656250 0.281250
v -0.281250 0.656250 0.343750
v -0.281250 0.843750 0.281250
v 0.281250 0.843750 0.281250
v -0.281250 0.843750 0.343750
v 0.281250 0.843750 0.343750
v -0.281250 0.843750 0.281250
v 0.281250 0.593750 0.343750
v -0.281250 0.406250 0.343750
v 0.281250 0.406250 0.343750
v -0.281250 0.593750 0.343750
v -0.281250 0.593750 0.281250
v 0.281250 0.406250 0.281250
v -0.281250 0.406250 0.281250
v 0.281250 0.593750 0.281250
v 0.281250 0.593750 0.281250
v 0.281250 0.406250 0.343750
v 0.281250 0.406250 0.281250
v 0.281250 0.593750 0.343750
v 0.281250 0.406250 0.343750
v -0.281250 0.406250 0.281250
v 0.281250 0.406250 0.281250
v -0.281250 0.406250 0.343750
v -0.281250 0.593750 0.343750
v -0.281250 0.406250 0.281250
v -0.281250 0.406250 0.343750
v -0.281250 0.593750 0.281250
v 0.281250 0.593750 0.281250
v -0.281250 0.593750 0.343750
v 0.281250 0.593750 0.343750
v -0.281250 0.593750 0.281250
v 0.031250 0.531250 0.375000
v -0.031250 0.468750 0.375000
v 0.031250 0.468750 0.375000
v -0.031250 0.531250 0.375000
v -0.031250 0.531250 0.312500
v 0.031250 0.468750 0.312500
v -0.031250 0.468750 0.312500
v 0.031250 0.531250 0.312500
v 0.031250 0.531250 0.312500
v 0.031250 0.468750 0.375000
v 0.031250 0.468750 0.312500
v 0.031250 0.531250 0.375000
v 0.031250 0.468750 0.375000
v -0.031250 0.468750 0.312500
v 0.031250 0.468750 0.312500
v -0.031250 0.468750 0.375000
v -0.031250 0.531250 0.375000
v -0.031250 0.468750 0.312500
v -0.031250 0.468750 0.375000
v -0.031250 0.531250 0.312500
v 0.031250 0.531250 0.312500
v -0.031250 0.531250 0.375000
v 0.031250 0.531250 0.375000
v -0.031250 0.531250 0.312500
v 0.031250 0.781250 0.375000
v -0.031250 0.718750 0.375000
v 0.031250 0.718750 0.375000
v -0.031250 0.781250 0.375000
v -0.031250 0.781250 0.312500
v 0.031250 0.718750 0.312500
v -0.031250 0.718750 0.312500
v 0.031250 0.781250 0.312500
v 0.031250 0.781250 0.312500
v 0.031250 0.718750 0.375000
v 0.031250 0.718750 0.312500
v 0.031250 0.781250 0.375000
v 0.031250 0.718750 0.375000
v -0.031250 0.718750 0.312500
v 0.031250 0.718750 0.312500
v -0.031250 0.718750 0.375000
v -0.031250 0.781250 0.375000
v -0.031250 0.718750 0.312500
v -0.031250 0.718750 0.375000
v -0.031250 0.781250 0.312500
v 0.031250 0.781250 0.312500
v -0.031250 0.781250 0.375000
v 0.031250 0.781250 0.375000
v -0.031250 0.781250 0.312500
v -0.218750 0.312500 0.281250
v -0.281250 -0.000000 0.281250
v -0.218750 -0.000000 0.281250
v -0.281250 0.312500 0.281250
v -0.281250 0.312500 0.218750
v -0.218750 -0.000000 0.218750
v -0.281250 -0.000000 0.218750
v -0.218750 0.312500 0.218750
v -0.218750 0.312500 0.218750
v -0.218750 -0.000000 0.281250
v -0.218750 -0.000000 0.218750
v -0.218750 0.312500 0.281250
v -0.218750 -0.000000 0.281250
v -0.281250 -0.000000 0.218750
v -0.218750 -0.000000 0.218750
v -0.281250 -0.000000 0.281250
v -0.281250 0.312500 0.281250
v -0.281250 -0.000000 0.218750
v -0.281250 -0.000000 0.281250
v -0.281250 0.312500 0.218750
v -0.218750 0.312500 0.218750
v -0.281250 0.312500 0.281250
v -0.218750 0.312500 0.281250
v -0.281250 0.312500 0.218750
v 0.281250 0.312500 0.281250
v 0.218750 -0.000000 0.281250
v 0.281250 -0.000000 0.281250
v 0.218750 0.312500 0.281250
v 0.218750 0.312500 0.218750
v 0.281250 -0.000000 0.218750
v 0.218750 -0.000000 0.218750
v 0.281250 0.312500 0.218750
v 0.281250 0.312500 0.218750
v 0.281250 -0.000000 0.281250
v 0.281250 -0.000000 0.218750
v 0.281250 0.312500 0.281250
v 0.281250 -0.000000 0.281250
v 0.218750 -0.000000 0.218750
v 0.281250 -0.000000 0.218750
v 0.218750 -0.000000 0.281250
v 0.218750 0.312500 0.281250
v 0.218750 -0.000000 0.218750
v 0.218750 -0.000000 0.281250
v 0.218750 0.312500 0.218750
v 0.281250 0.312500 0.218750
v 0.218750 0.312500 0.281250
v 0.281250 0.312500 0.281250
v 0.218750 0.312500 0.218750
v 0.281250 0.312500 -0.218750
v 0.218750 0.000000 -0.218750
v 0.281250 0.000000 -0.218750
v 0.218750 0.312500 -0.218750
v 0.218750 0.312500 -0.281250
v 0.281250 0.000000 -0.281250
v 0.218750 0.000000 -0.281250
v 0.281250 0.312500 -0.281250
v 0.281250 0.312500 -0.281250
v 0.281250 0.000000 -0.218750
v 0.281250 0.000000 -0.281250
v 0.281250 0.312500 -0.218750
v 0.281250 0.000000 -0.218750
v 0.218750 0.000000 -0.281250
v 0.281250 0.000000 -0.281250
v 0.218750 0.000000 -0.218750
v 0.218750 0.312500 -0.218750
v 0.218750 0.000000 -0.281250
v 0.218750 0.000000 -0.218750
v 0.218750 0.312500 -0.281250
v 0.281250 0.312500 -0.281250
v 0.218750 0.312500 -0.218750
v 0.281250 0.312500 -0.218750
v 0.218750 0.312500 -0.281250
v -0.218750 0.312500 -0.218750
v -0.281250 0.000000 -0.218750
v -0.218750 0.000000 -0.218750
v -0.281250 0.312500 -0.218750
v -0.281250 0.312500 -0.281250
v -0.218750 0.000000 -0.281250
v -0.281250 0.000000 -0.281250
v -0.218750 0.312500 -0.281250
v -0.218750 0.312500 -0.281250
v -0.218750 0.000000 -0.218750
v -0.218750 0.000000 -0.281250
v -0.218750 0.312500 -0.218750
v -0.218750 0.000000 -0.218750
v -0.281250 0.000000 -0.281250
v -0.218750 0.000000 -0.281250
v -0.281250 0.000000 -0.218750
v -0.281250 0.312500 -0.218750
v -0.281250 0.000000 -0.281250
v -0.281250 0.000000 -0.218750
v -0.281250 0.312500 -0.281250
v -0.218750 0.312500 -0.281250
v -0.281250 0.312500 -0.218750
v -0.218750 0.312500 -0.218750
v -0.281250 0.312500 -0.281250
vt 0.625000 1.000000
vt 0.000000 0.687500
vt 0.625000 0.687500
vt 0.000000 1.000000
vt 0.687500 0.531250
vt 0.000000 0.500000
vt 0.687500 0.500000
vt 0.000000 0.531250
vt 0.000000 0.187500
vt 0.687500 0.187500
vt 0.562500 0.656250
vt 0.000000 0.562500
vt 0.562500 0.562500
vt 0.000000 0.656250
vt 0.062500 0.656250
vt 0.062500 0.562500
vt 0.000000 0.625000
vt 0.562500 0.625000
vt 0.562500 0.781250
vt 0.500000 0.750000
vt 0.562500 0.750000
vt 0.500000 0.781250
vt 0.687500 0.687500
vt 0.625000 0.531250
vt 0.625000 0.656250
vt 0.687500 0.656250
vn 0.000000 -0.000000 1.000000
vn 0.000000 0.000000 -1.000000
vn 1.000000 -0.000000 0.000000
vn 0.000000 -1.000000 -0.000000
vn -1.000000 0.000000 0.000000
vn 0.000000 1.000000 0.000000
usemtl None
s 1
f 1/1/1 2/2/1 3/3/1
f 1/1/1 4/4/1 2/2/1
f 5/1/2 6/2/2 7/3/2
f 5/1/2 8/4/2 6/2/2
f 9/1/3 10/2/3 11/3/3
f 9/1/3 12/4/3 10/2/3
f 13/1/4 14/2/4 15/3/4
f 13/1/4 16/4/4 14/2/4
f 17/1/5 18/2/5 19/3/5
f 17/1/5 20/4/5 18/2/5
f 21/1/6 22/2/6 23/3/6
f 21/1/6 24/4/6 22/2/6
f 25/5/1 26/6/1 27/7/1
f 25/5/1 28/8/1 26/6/1
f 29/5/2 30/6/2 31/7/2
f 29/5/2 32/8/2 30/6/2
f 33/5/3 34/6/3 35/7/3
f 33/5/3 36/8/3 34/6/3
f 37/5/4 38/9/4 39/10/4
f 37/5/4 40/8/4 38/9/4
f 41/5/5 42/6/5 43/7/5
f 41/5/5 44/8/5 42/6/5
f 45/5/6 46/9/6 47/10/6
f 45/5/6 48/8/6 46/9/6
f 49/11/1 50/12/1 51/13/1
f 49/11/1 52/14/1 50/12/1
f 53/11/2 54/12/2 55/13/2
f 53/11/2 56/14/2 54/12/2
f 57/15/3 58/12/3 59/16/3
f 57/15/3 60/14/3 58/12/3
f 61/11/4 62/17/4 63/18/4
f 61/11/4 64/14/4 62/17/4
f 65/15/5 66/12/5 67/16/5
f 65/15/5 68/14/5 66/12/5
f 69/11/6 70/17/6 71/18/6
f 69/11/6 72/14/6 70/17/6
f 73/11/1 74/12/1 75/13/1
f 73/11/1 76/14/1 74/12/1
f 77/11/2 78/12/2 79/13/2
f 77/11/2 80/14/2 78/12/2
f 81/15/3 82/12/3 83/16/3
f 81/15/3 84/14/3 82/12/3
f 85/11/4 86/17/4 87/18/4
f 85/11/4 88/14/4 86/17/4
f 89/15/5 90/12/5 91/16/5
f 89/15/5 92/14/5 90/12/5
f 93/11/6 94/17/6 95/18/6
f 93/11/6 96/14/6 94/17/6
f 97/19/1 98/20/1 99/21/1
f 97/19/1 100/22/1 98/20/1
f 101/19/2 102/20/2 103/21/2
f 101/19/2 104/22/2 102/20/2
f 105/19/3 106/20/3 107/21/3
f 105/19/3 108/22/3 106/20/3
f 109/19/4 110/20/4 111/21/4
f 109/19/4 112/22/4 110/20/4
f 113/19/5 114/20/5 115/21/5
f 113/19/5 116/22/5 114/20/5
f 117/19/6 118/20/6 119/21/6
f 117/19/6 120/22/6 118/20/6
f 121/19/1 122/20/1 123/21/1
f 121/19/1 124/22/1 122/20/1
f 125/19/2 126/20/2 127/21/2
f 125/19/2 128/22/2 126/20/2
f 129/19/3 130/20/3 131/21/3
f 129/19/3 132/22/3 130/20/3
f 133/19/4 134/20/4 135/21/4
f 133/19/4 136/22/4 134/20/4
f 137/19/5 138/20/5 139/21/5
f 137/19/5 140/22/5 138/20/5
f 141/19/6 142/20/6 143/21/6
f 141/19/6 144/22/6 142/20/6
f 145/23/1 146/24/1 147/5/1
f 145/23/1 148/3/1 146/24/1
f 149/23/2 150/24/2 151/5/2
f 149/23/2 152/3/2 150/24/2
f 153/23/3 154/24/3 155/5/3
f 153/23/3 156/3/3 154/24/3
f 157/23/4 158/25/4 159/26/4
f 157/23/4 160/3/4 158/25/4
f 161/23/5 162/24/5 163/5/5
f 161/23/5 164/3/5 162/24/5
f 165/23/6 166/25/6 167/26/6
f 165/23/6 168/3/6 166/25/6
f 169/23/1 170/24/1 171/5/1
f 169/23/1 172/3/1 170/24/1
f 173/23/2 174/24/2 175/5/2
f 173/23/2 176/3/2 174/24/2
f 177/23/3 178/24/3 179/5/3
f 177/23/3 180/3/3 178/24/3
f 181/23/4 182/25/4 183/26/4
f 181/23/4 184/3/4 182/25/4
f 185/23/5 186/24/5 187/5/5
f 185/23/5 188/3/5 186/24/5
f 189/23/6 190/25/6 191/26/6
f 189/23/6 192/3/6 190/25/6
f 193/23/1 194/24/1 195/5/1
f 193/23/1 196/3/1 194/24/1
f 197/23/2 198/24/2 199/5/2
f 197/23/2 200/3/2 198/24/2
f 201/23/3 202/24/3 203/5/3
f 201/23/3 204/3/3 202/24/3
f 205/23/4 206/25/4 207/26/4
f 205/23/4 208/3/4 206/25/4
f 209/23/5 210/24/5 211/5/5
f 209/23/5 212/3/5 210/24/5
f 213/23/6 214/25/6 215/26/6
f 213/23/6 216/3/6 214/25/6
f 217/23/1 218/24/1 219/5/1
f 217/23/1 220/3/1 218/24/1
f 221/23/2 222/24/2 223/5/2
f 221/23/2 224/3/2 222/24/2
f 225/23/3 226/24/3 227/5/3
f 225/23/3 228/3/3 226/24/3
f 229/23/4 230/25/4 231/26/4
f 229/23/4 232/3/4 230/25/4
f 233/23/5 234/24/5 235/5/5
f 233/23/5 236/3/5 234/24/5
f 237/23/6 238/25/6 239/26/6
f 237/23/6 240/3/6 238/25/6
