# Blender v2.74 (sub 0) OBJ File: ''
# www.blender.org
mtllib P90_Chargeur.mtl
o P90_Chargeur
v 0.968750 3.468749 4.625000
v -0.031250 2.968749 4.625000
v 0.968750 2.968749 4.625000
v -0.031250 3.468749 4.625000
v -0.031250 3.468750 0.062501
v 0.968750 2.968750 0.062500
v -0.031250 2.968750 0.062500
v 0.968750 3.468750 0.062501
v 0.968750 3.468750 0.062501
v 0.968750 2.968749 4.625000
v 0.968750 2.968750 0.062500
v 0.968750 3.468749 4.625000
v 0.968750 2.968749 4.625000
v -0.031250 2.968750 0.062500
v 0.968750 2.968750 0.062500
v -0.031250 2.968749 4.625000
v -0.031250 3.468749 4.625000
v -0.031250 2.968750 0.062500
v -0.031250 2.968749 4.625000
v -0.031250 3.468750 0.062501
v 0.968750 3.468750 0.062501
v -0.031250 3.468749 4.625000
v 0.968750 3.468749 4.625000
v -0.031250 3.468750 0.062501
vt 0.125000 0.125000
vt 0.000000 0.000000
vt 0.125000 0.000000
vt 0.000000 0.125000
vt 0.570312 0.125000
vt 0.570312 0.000000
vt 0.000000 0.250000
vt 0.570312 0.250000
vn 0.000000 0.000000 1.000000
vn 0.000000 0.000000 -1.000000
vn 1.000000 0.000000 0.000000
vn 0.000000 -1.000000 -0.000000
vn -1.000000 -0.000000 0.000000
vn 0.000000 1.000000 0.000000
usemtl None
s 1
f 1/1/1 2/2/1 3/3/1
f 1/1/1 4/4/1 2/2/1
f 5/1/2 6/2/2 7/3/2
f 5/1/2 8/4/2 6/2/2
f 9/5/3 10/2/3 11/6/3
f 9/5/3 12/4/3 10/2/3
f 13/6/4 14/7/4 15/2/4
f 13/6/4 16/8/4 14/7/4
f 17/5/5 18/2/5 19/6/5
f 17/5/5 20/4/5 18/2/5
f 21/6/6 22/7/6 23/2/6
f 21/6/6 24/8/6 22/7/6
